<svg width="375" height="60" viewBox="0 0 375 60" fill="none" xmlns="http://www.w3.org/2000/svg">
<path d="M67.9062 41.1562H55.75V36.25H67.9062C70.2604 36.25 72.1667 35.875 73.625 35.125C75.0833 34.375 76.1458 33.3333 76.8125 32C77.5 30.6667 77.8438 29.1458 77.8438 27.4375C77.8438 25.875 77.5 24.4062 76.8125 23.0312C76.1458 21.6562 75.0833 20.5521 73.625 19.7188C72.1667 18.8646 70.2604 18.4375 67.9062 18.4375H57.1562V59H51.125V13.5H67.9062C71.3438 13.5 74.25 14.0938 76.625 15.2812C79 16.4688 80.8021 18.1146 82.0312 20.2188C83.2604 22.3021 83.875 24.6875 83.875 27.375C83.875 30.2917 83.2604 32.7812 82.0312 34.8438C80.8021 36.9062 79 38.4792 76.625 39.5625C74.25 40.625 71.3438 41.1562 67.9062 41.1562ZM145.406 13.5V59H139.375V13.5H145.406ZM172.875 13.5L153.969 34.7188L143.344 45.75L142.344 39.3125L150.344 30.5L165.625 13.5H172.875ZM167.062 59L150.219 36.8125L153.812 32.0312L174.25 59H167.062ZM208.469 54.0938V59H184.375V54.0938H208.469ZM185.594 13.5V59H179.562V13.5H185.594ZM205.281 33.0625V37.9688H184.375V33.0625H205.281ZM208.156 13.5V18.4375H184.375V13.5H208.156ZM190.438 10.125L196.5 0.9375H203.469L195.094 10.125H190.438ZM228.25 59H218.75L218.812 54.0938H228.25C231.5 54.0938 234.208 53.4167 236.375 52.0625C238.542 50.6875 240.167 48.7708 241.25 46.3125C242.354 43.8333 242.906 40.9375 242.906 37.625V34.8438C242.906 32.2396 242.594 29.9271 241.969 27.9062C241.344 25.8646 240.427 24.1458 239.219 22.75C238.01 21.3333 236.531 20.2604 234.781 19.5312C233.052 18.8021 231.062 18.4375 228.812 18.4375H218.562V13.5H228.812C231.792 13.5 234.51 14 236.969 15C239.427 15.9792 241.542 17.4062 243.312 19.2812C245.104 21.1354 246.479 23.3854 247.438 26.0312C248.396 28.6562 248.875 31.6146 248.875 34.9062V37.625C248.875 40.9167 248.396 43.8854 247.438 46.5312C246.479 49.1562 245.094 51.3958 243.281 53.25C241.49 55.1042 239.323 56.5312 236.781 57.5312C234.26 58.5104 231.417 59 228.25 59ZM221.969 13.5V59H215.938V13.5H221.969ZM286.844 54.0938V59H262.75V54.0938H286.844ZM263.969 13.5V59H257.938V13.5H263.969ZM283.656 33.0625V37.9688H262.75V33.0625H283.656ZM286.531 13.5V18.4375H262.75V13.5H286.531ZM298.219 13.5L309.156 30.9375L320.094 13.5H327.125L312.75 36.0312L327.469 59H320.375L309.156 41.2188L297.938 59H290.844L305.562 36.0312L291.188 13.5H298.219Z" fill="#F6F6F6"/>
<path d="M86.8093 35.1086C87.1566 29.3835 89.6383 23.961 93.8125 19.883C98.3236 15.4759 104.442 13 110.822 13C117.201 13 123.319 15.4759 127.831 19.883C132.005 23.961 134.486 29.3835 134.834 35.1086H117.998C117.718 33.731 117.026 32.4535 115.995 31.4458C114.623 30.1053 112.762 29.3523 110.822 29.3523C108.881 29.3523 107.02 30.1053 105.648 31.4458C104.617 32.4535 103.925 33.731 103.645 35.1086H86.8093Z" fill="#F6F6F6"/>
<path d="M134.824 38.0461H117.965C117.666 39.3645 116.988 40.5843 115.995 41.5542C114.623 42.8947 112.762 43.6477 110.822 43.6477C108.881 43.6477 107.02 42.8947 105.648 41.5542C104.655 40.5843 103.977 39.3645 103.678 38.0461H86.8192C87.2015 43.7141 89.6759 49.0757 93.8125 53.117C98.3236 57.5241 104.442 60 110.822 60C117.201 60 123.319 57.5241 127.831 53.117C131.967 49.0757 134.442 43.7141 134.824 38.0461Z" fill="#F6F6F6"/>
<path d="M115.094 36.5C115.094 38.8054 113.181 40.6743 110.822 40.6743C108.462 40.6743 106.549 38.8054 106.549 36.5C106.549 34.1946 108.462 32.3257 110.822 32.3257C113.181 32.3257 115.094 34.1946 115.094 36.5Z" fill="#F6F6F6"/>
</svg>
